<?xml version="1.0" encoding="utf-8"?>
<!-- Generator: Adobe Illustrator 28.0.0, SVG Export Plug-In . SVG Version: 6.00 Build 0)  -->
<svg version="1.1" id="Ebene_1" xmlns="http://www.w3.org/2000/svg" xmlns:xlink="http://www.w3.org/1999/xlink" x="0px" y="0px"
	 viewBox="0 0 239.33 60.551" style="enable-background:new 0 0 239.33 60.551;" xml:space="preserve">
<style type="text/css">
	.st0{fill:#FFFFFF;}
</style>
<path class="st0" d="M3.44,30.8809c3.9362,1.9222,8.2499,2.9469,12.63,3c7.09,0,14.24-3.88,14.24-11.71c0-5.57-3.66-8.27-8.71-9.41
	l-2.7-0.61c-0.92-0.22-2.4-0.39-2.4-1.61s1.53-1.74,2.57-1.74c2.5044,0.1076,4.9173,0.9723,6.92,2.48l3.23-8.4
	c-3.1309-1.918-6.7385-2.9161-10.41-2.88c-7.14,0-14.24,4.36-14.24,12.15c0,5.14,3.92,7.88,8.58,8.71l2.39,0.44
	c1.09,0.21,2.66,0.35,2.66,1.83s-1.87,2-3,2c-2.7416-0.1584-5.3554-1.2123-7.44-3l-0.61-0.48l-3.66,9.28L3.44,30.8809z"/>
<path class="st0" d="M57.44,1.351c-2.5754-0.8826-5.2776-1.3386-8-1.35c-9.4329-0.0446-17.116,7.566-17.1607,16.999
	c-0.0004,0.0837-0.0002,0.1674,0.0007,0.251c-0.1001,9.0845,7.1833,16.5301,16.2678,16.6302
	c0.1274,0.0014,0.2548,0.0013,0.3822-0.0002c2.13,0,6.57-0.39,8.49-1.31l0.35-12.27c-1.7755,1.891-4.2463,2.9746-6.84,3
	c-3.6024,0.0614-6.578-2.798-6.66-6.4c0.0164-3.5512,2.9085-6.4166,6.4596-6.4002c0.0101,0,0.0202,0.0001,0.0303,0.0002
	c2.7,0,5.09,1.53,7,3.31l-0.35-12.5L57.44,1.351z"/>
<polygon class="st0" points="61.44,33.361 72.94,33.361 72.94,21.951 80.26,21.951 80.26,33.361 91.75,33.361 91.75,0.531 
	80.26,0.531 80.26,11.591 72.94,11.591 72.94,0.531 61.44,0.531 61.44,33.361 "/>
<polygon class="st0" points="96.43,33.361 118.85,33.361 118.85,24.391 108.45,24.391 108.45,21.171 117.63,21.171 117.63,12.631 
	108.45,12.631 108.45,9.501 118.5,9.501 118.5,0.531 96.43,0.531 96.43,33.361 "/>
<path class="st0" d="M123.19,33.361h11.68v-10.54h0.21l5.23,10.54h13.76l-7.14-10.63c-0.547-0.7764-1.2236-1.453-2-2v-0.26
	c4.45-1.48,6.36-3.57,6.36-8.54c0-8.27-6.27-11.4-13.67-11.4h-14.43V33.361z M134.87,9.501h0.91c2,0,3.83,0.3,3.83,2.83
	s-2,2.74-3.92,2.74h-0.82V9.501z"/>
<polygon class="st0" points="155.63,33.361 177.58,33.361 177.58,22.821 167.57,22.821 167.57,0.531 155.63,0.531 155.63,33.361 "/>
<polygon class="st0" points="180.09,33.361 202.51,33.361 202.51,24.391 192.1,24.391 192.1,21.171 201.29,21.171 201.29,12.631 
	192.1,12.631 192.1,9.501 202.16,9.501 202.16,0.531 180.09,0.531 180.09,33.361 "/>
<path class="st0" d="M206.85,33.361h11.68v-10.54h0.21l5.19,10.54h13.8l-7.15-10.63c-0.547-0.7764-1.2236-1.453-2-2v-0.26
	c4.44-1.48,6.36-3.57,6.36-8.54c0-8.27-6.27-11.4-13.67-11.4h-14.42V33.361z M218.53,9.501h0.91c2.05,0,3.83,0.3,3.83,2.83
	s-2,2.74-3.92,2.74h-0.82V9.501z"/>
<path class="st0" d="M202.32,48.461h2.4c0.94,0,1.58,0.41,1.58,1.43s-0.76,1.32-1.62,1.32h-2.36V48.461z M200.13,52.9109h4.8
	c1.81,0,3.53-0.87,3.53-2.89c0.08-1.1797-0.6941-2.2483-1.84-2.54c0.8448-0.3394,1.3879-1.17,1.36-2.08c0-1.86-1.29-2.48-3.19-2.48
	h-4.7v10L200.13,52.9109z M202.32,44.631h2.06c0.79,0,1.51,0.19,1.51,1.14s-0.57,1.19-1.34,1.19h-2.23V44.631z"/>
<polygon class="st0" points="210.56,52.9109 218.15,52.9109 218.15,51.071 212.76,51.071 212.76,48.621 217.6,48.621 217.6,46.9109 
	212.76,46.9109 212.76,44.771 218.03,44.771 218.03,42.921 210.56,42.921 210.56,52.9109 "/>
<path class="st0" d="M220.2,52.9109h2.2v-3.9h2.2c1.1,0,1.51,0.46,1.66,1.51c0.0306,0.8069,0.1479,1.6082,0.35,2.39h2.2
	c-0.3141-0.7456-0.4576-1.5519-0.42-2.36c-0.07-1-0.38-2.06-1.46-2.34l0,0c1.0309-0.3822,1.681-1.4043,1.59-2.5
	c0.0088-1.5188-1.2153-2.7571-2.7341-2.7659c-0.0654-0.0004-0.1307,0.0016-0.1959,0.0059h-5.39v10V52.9109z M222.4,44.631h2.41
	c1,0,1.51,0.42,1.51,1.38s-0.53,1.43-1.51,1.43h-2.41V44.631z"/>
<polygon class="st0" points="230.89,52.9109 232.94,52.9109 232.94,46.221 232.97,46.221 237.13,52.9109 239.33,52.9109 
	239.33,42.921 237.27,42.921 237.27,49.631 237.24,49.631 233.07,42.921 230.89,42.921 230.89,52.9109 "/>
<polygon class="st0" points="193.56,37.841 186.09,52.421 192.1,51.011 190.17,60.551 197.7,45.741 191.7,48.001 193.56,37.841 "/>
<path class="st0" d="M0,42.901h7.47v1.83H2.2v2.14h4.83v1.7H2.2v2.45h5.38v1.85H0V42.901z"/>
<path class="st0" d="M9.06,42.901h2.2v8.14h4.87v1.85H9.06V42.901z"/>
<path class="st0" d="M17.36,42.901h7.47v1.83h-5.28v2.14h4.84v1.7h-4.84v2.45h5.38v1.85h-7.57V42.901z"/>
<path class="st0" d="M26.42,42.901h2.2v4.14l3.9-4.14h2.74l-3.9,3.94l4.28,6h-2.71l-3-4.49l-1.26,1.27v3.22h-2.2L26.42,42.901z"/>
<path class="st0" d="M38.73,44.731h-3v-1.85h8.2v1.85h-3v8.14h-2.2V44.731z"/>
<path class="st0" d="M45.07,42.901h5.38c1.5159-0.0939,2.8209,1.0588,2.9148,2.5747c0.0038,0.0617,0.0056,0.1235,0.0052,0.1853
	c0.0924,1.0931-0.553,2.1144-1.58,2.5l0,0c1.08,0.28,1.39,1.33,1.46,2.33c-0.0374,0.8114,0.1061,1.6209,0.42,2.37h-2.2
	c-0.2013-0.782-0.3187-1.5831-0.35-2.39c-0.15-1.05-0.56-1.51-1.66-1.51h-2.2v3.9h-2.19V42.901z M47.26,47.421h2.41
	c1,0,1.51-0.42,1.51-1.43s-0.53-1.38-1.51-1.38h-2.41L47.26,47.421z"/>
<path class="st0" d="M59.64,42.6609c3.09,0,4.91,2.31,4.91,5.28s-1.82,5.19-4.91,5.19s-4.91-2.31-4.91-5.19
	S56.55,42.6609,59.64,42.6609z M59.64,51.2809c2,0,2.71-1.68,2.71-3.34s-0.74-3.43-2.71-3.43s-2.71,1.68-2.71,3.43
	S57.67,51.281,59.64,51.2809L59.64,51.2809z"/>
<path class="st0" d="M78.41,49.111c0,2.7-1.59,4-4.26,4s-4.26-1.31-4.26-4v-6.21h2.2v6.21c0,1.09,0.28,2.17,2.06,2.17
	c1.56,0,2.06-0.69,2.06-2.17v-6.21h2.2L78.41,49.111z"/>
<path class="st0" d="M80.3,42.901h2.18l4.17,6.7l0,0v-6.7h2v10h-2.11l-4.16-6.69l0,0v6.69h-2L80.3,42.901z"/>
<path class="st0" d="M90.66,42.901h4.27c2.59,0,4.53,1.62,4.53,4.94c0,2.89-1.48,5-4.53,5h-4.27V42.901z M92.86,51.041h2
	c1.27,0,2.49-0.78,2.49-3c0-2-0.7-3.3-2.88-3.3h-1.61V51.041z"/>
<path class="st0" d="M107.13,44.731h-3v-1.85h8.19v1.85h-3v8.14h-2.19V44.731z"/>
<path class="st0" d="M113.46,42.901h7.47v1.83h-5.27v2.14h4.84v1.7h-4.84v2.45h5.38v1.85h-7.58L113.46,42.901z"/>
<path class="st0" d="M122.53,42.901h2.19v8.14h4.87v1.85h-7.06V42.901z"/>
<path class="st0" d="M130.82,42.901h7.47v1.83h-5.27v2.14h4.84v1.7h-4.84v2.45h5.38v1.85h-7.58V42.901z"/>
<path class="st0" d="M139.93,42.901h3.1l2.33,6.87l0,0l2.21-6.87h3.09v10h-2.06v-7.08l0,0l-2.45,7.08h-1.69l-2.45-7l0,0v7h-2.08
	V42.901z"/>
<path class="st0" d="M155.3,42.901h2.25l3.73,10h-2.27l-0.76-2.22h-3.73l-0.79,2.22h-2.22L155.3,42.901z M155.09,49.031h2.58
	l-1.25-3.67l0,0L155.09,49.031z"/>
<path class="st0" d="M164.36,44.731h-3v-1.85h8.18v1.85h-3v8.14h-2.2L164.36,44.731z"/>
<path class="st0" d="M170.7,42.901h2.23v10h-2.19L170.7,42.901z"/>
<path class="st0" d="M174.82,42.901h2.2v4.14l3.9-4.14h2.74l-3.9,3.94l4.28,6h-2.75l-3-4.49l-1.26,1.27v3.22h-2.2L174.82,42.901z"/>
</svg>
