<?xml version="1.0" encoding="utf-8"?>
<!-- Generator: Adobe Illustrator 28.0.0, SVG Export Plug-In . SVG Version: 6.00 Build 0)  -->
<svg version="1.1" id="Ebene_1" xmlns="http://www.w3.org/2000/svg" xmlns:xlink="http://www.w3.org/1999/xlink" x="0px" y="0px"
	 viewBox="0 0 234.3 33.9" style="enable-background:new 0 0 234.3 33.9;" xml:space="preserve">
<style type="text/css">
	.st0{fill:#D6D6D6;}
</style>
<path class="st0" d="M0,30.9c3.9,1.9,8.2,2.9,12.6,3c7.1,0,14.2-3.9,14.2-11.7c0-5.6-3.7-8.3-8.7-9.4l-2.7-0.6
	c-0.9-0.2-2.4-0.4-2.4-1.6s1.5-1.7,2.6-1.7c2.5,0.1,4.9,1,6.9,2.5l3.2-8.4C22.6,1,19,0,15.4,0C8.2,0,1.1,4.4,1.1,12.2
	c0,5.1,3.9,7.9,8.6,8.7l2.4,0.4c1.1,0.2,2.7,0.4,2.7,1.8s-1.9,2-3,2c-2.7-0.2-5.4-1.2-7.4-3l-0.6-0.5L0,30.9L0,30.9z"/>
<path class="st0" d="M54,1.4C51.4,0.5,48.7,0,46,0c-9.4,0-17.1,7.6-17.2,17c0,0.1,0,0.2,0,0.3c-0.1,9.1,7.2,16.5,16.3,16.6
	c0.1,0,0.3,0,0.4,0c2.1,0,6.6-0.4,8.5-1.3l0.3-12.3c-1.8,1.9-4.2,3-6.8,3c-3.6,0.1-6.6-2.8-6.7-6.4c0-3.6,2.9-6.4,6.5-6.4
	c0,0,0,0,0,0c2.7,0,5.1,1.5,7,3.3L54,1.4L54,1.4z"/>
<polygon class="st0" points="58,33.4 69.5,33.4 69.5,22 76.8,22 76.8,33.4 88.3,33.4 88.3,0.5 76.8,0.5 76.8,11.6 69.5,11.6 
	69.5,0.5 58,0.5 "/>
<polygon class="st0" points="93,33.4 115.4,33.4 115.4,24.4 105,24.4 105,21.2 114.2,21.2 114.2,12.6 105,12.6 105,9.5 115.1,9.5 
	115.1,0.5 93,0.5 "/>
<path class="st0" d="M119.8,33.4h11.7V22.8h0.2l5.2,10.5h13.8l-7.1-10.6c-0.5-0.8-1.2-1.5-2-2v-0.3c4.4-1.5,6.4-3.6,6.4-8.5
	c0-8.3-6.3-11.4-13.7-11.4h-14.4C119.7,0.5,119.7,33.4,119.8,33.4z M131.4,9.5h0.9c2,0,3.8,0.3,3.8,2.8s-2,2.7-3.9,2.7h-0.8V9.5z"/>
<polygon class="st0" points="152.2,33.4 174.1,33.4 174.1,22.8 164.1,22.8 164.1,0.5 152.2,0.5 "/>
<polygon class="st0" points="176.6,33.4 199.1,33.4 199.1,24.4 188.7,24.4 188.7,21.2 197.8,21.2 197.8,12.6 188.7,12.6 188.7,9.5 
	198.7,9.5 198.7,0.5 176.6,0.5 "/>
<path class="st0" d="M203.4,33.4h11.7V22.8h0.2l5.2,10.5h13.8l-7.1-10.6c-0.5-0.8-1.2-1.5-2-2v-0.3c4.4-1.5,6.4-3.6,6.4-8.5
	c0-8.3-6.3-11.4-13.7-11.4h-14.4L203.4,33.4L203.4,33.4z M215.1,9.5h0.9c2.1,0,3.8,0.3,3.8,2.8s-2,2.7-3.9,2.7h-0.8V9.5z"/>
</svg>
