<svg id="Ebene_1" data-name="Ebene 1" xmlns="http://www.w3.org/2000/svg" viewBox="0 0 240 168"><defs><style>.cls-1{fill:#0082ca;}.cls-2{fill:#fff;}.cls-3{fill:#1d1d1b;}</style></defs><title>Zeichenfläche 1</title><polygon class="cls-1" points="0 0.18 240 0.18 240 142.41 0 142.41 0 0.18 0 0.18"/><path class="cls-2" d="M3.51,138.15a29.6,29.6,0,0,0,12.63,3c7.09,0,14.24-3.88,14.24-11.71,0-5.57-3.66-8.27-8.71-9.41l-2.7-.61c-.92-.22-2.4-.39-2.4-1.61s1.53-1.74,2.57-1.74a12.39,12.39,0,0,1,6.92,2.48l3.23-8.4a19.56,19.56,0,0,0-10.41-2.88c-7.14,0-14.24,4.36-14.24,12.15,0,5.14,3.92,7.88,8.58,8.71l2.39.44c1.09.21,2.66.35,2.66,1.83s-1.87,2-3,2a12.54,12.54,0,0,1-7.44-3l-.61-.48-3.66,9.28Z"/><path class="cls-2" d="M57.51,108.62a25,25,0,0,0-8-1.35,17.08,17.08,0,0,0-17.16,17.25A16.45,16.45,0,0,0,49,141.15c2.13,0,6.57-.39,8.49-1.31l.35-12.27a9.51,9.51,0,0,1-6.84,3,6.55,6.55,0,0,1-6.66-6.4,6.43,6.43,0,0,1,6.49-6.4c2.7,0,5.09,1.53,7,3.31l-.35-12.5Z"/><polygon class="cls-2" points="61.51 140.63 73.01 140.63 73.01 129.22 80.33 129.22 80.33 140.63 91.82 140.63 91.82 107.8 80.33 107.8 80.33 118.86 73.01 118.86 73.01 107.8 61.51 107.8 61.51 140.63 61.51 140.63"/><polygon class="cls-2" points="96.5 140.63 118.92 140.63 118.92 131.66 108.52 131.66 108.52 128.44 117.7 128.44 117.7 119.9 108.52 119.9 108.52 116.77 118.57 116.77 118.57 107.8 96.5 107.8 96.5 140.63 96.5 140.63"/><path class="cls-2" d="M123.26,140.63h11.68V130.09h.21l5.23,10.54h13.76L147,130a8.28,8.28,0,0,0-2-2v-.26c4.45-1.48,6.36-3.57,6.36-8.54,0-8.27-6.27-11.4-13.67-11.4H123.26v32.83Zm11.68-23.86h.91c2,0,3.83.3,3.83,2.83s-2,2.74-3.92,2.74h-.82v-5.57Z"/><polygon class="cls-2" points="155.7 140.63 177.65 140.63 177.65 130.09 167.64 130.09 167.64 107.8 155.7 107.8 155.7 140.63 155.7 140.63"/><polygon class="cls-2" points="180.16 140.63 202.58 140.63 202.58 131.66 192.17 131.66 192.17 128.44 201.36 128.44 201.36 119.9 192.17 119.9 192.17 116.77 202.23 116.77 202.23 107.8 180.16 107.8 180.16 140.63 180.16 140.63"/><path class="cls-2" d="M206.92,140.63H218.6V130.09h.21L224,140.63H237.8L230.65,130a8.28,8.28,0,0,0-2-2v-.26c4.44-1.48,6.36-3.57,6.36-8.54,0-8.27-6.27-11.4-13.67-11.4H206.92v32.83Zm11.68-23.86h.91c2.05,0,3.83.3,3.83,2.83s-2,2.74-3.92,2.74h-.82v-5.57Z"/><path class="cls-3" d="M202.39,155.73h2.4c.94,0,1.58.41,1.58,1.43s-.76,1.32-1.62,1.32h-2.36v-2.75Zm-2.19,4.45H205c1.81,0,3.53-.87,3.53-2.89a2.45,2.45,0,0,0-1.84-2.54,2.17,2.17,0,0,0,1.36-2.08c0-1.86-1.29-2.48-3.19-2.48h-4.7v10Zm2.19-8.28h2.06c.79,0,1.51.19,1.51,1.14s-.57,1.19-1.34,1.19h-2.23V151.9Z"/><polygon class="cls-3" points="210.63 160.18 218.22 160.18 218.22 158.34 212.83 158.34 212.83 155.89 217.67 155.89 217.67 154.18 212.83 154.18 212.83 152.04 218.1 152.04 218.1 150.19 210.63 150.19 210.63 160.18 210.63 160.18"/><path class="cls-3" d="M220.27,160.18h2.2v-3.9h2.2c1.1,0,1.51.46,1.66,1.51a11.25,11.25,0,0,0,.35,2.39h2.2a5.43,5.43,0,0,1-.42-2.36c-.07-1-.38-2.06-1.46-2.34v0a2.45,2.45,0,0,0,1.59-2.5,2.75,2.75,0,0,0-2.93-2.76h-5.39v10Zm2.2-8.28h2.41c1,0,1.51.42,1.51,1.38s-.53,1.43-1.51,1.43h-2.41V151.9Z"/><polygon class="cls-3" points="230.96 160.18 233.01 160.18 233.01 153.49 233.04 153.49 237.2 160.18 239.4 160.18 239.4 150.19 237.34 150.19 237.34 156.9 237.31 156.9 233.14 150.19 230.96 150.19 230.96 160.18 230.96 160.18"/><polygon class="cls-1" points="193.63 145.11 186.16 159.69 192.17 158.28 190.24 167.82 197.77 153.01 191.77 155.27 193.63 145.11 193.63 145.11"/><path class="cls-3" d="M.07,150.17H7.54V152H2.27v2.14H7.1v1.7H2.27v2.45H7.65v1.85H.07Z"/><path class="cls-3" d="M9.13,150.17h2.2v8.14H16.2v1.85H9.13Z"/><path class="cls-3" d="M17.43,150.17H24.9V152H19.62v2.14h4.84v1.7H19.62v2.45H25v1.85H17.43Z"/><path class="cls-3" d="M26.49,150.17h2.2v4.14l3.9-4.14h2.74l-3.9,3.94,4.28,6H33l-3-4.49-1.26,1.27v3.22h-2.2Z"/><path class="cls-3" d="M38.8,152h-3v-1.85H44V152H41v8.14H38.8Z"/><path class="cls-3" d="M45.14,150.17h5.38a2.75,2.75,0,0,1,2.92,2.76,2.45,2.45,0,0,1-1.58,2.5v0c1.08.28,1.39,1.33,1.46,2.33a5.48,5.48,0,0,0,.42,2.37h-2.2a11.35,11.35,0,0,1-.35-2.39c-.15-1.05-.56-1.51-1.66-1.51h-2.2v3.9H45.14Zm2.19,4.52h2.41c1,0,1.51-.42,1.51-1.43s-.53-1.38-1.51-1.38H47.33Z"/><path class="cls-3" d="M59.71,149.93c3.09,0,4.91,2.31,4.91,5.28s-1.82,5.19-4.91,5.19-4.91-2.31-4.91-5.19S56.62,149.93,59.71,149.93Zm0,8.62c2,0,2.71-1.68,2.71-3.34s-.74-3.43-2.71-3.43S57,153.46,57,155.21,57.74,158.55,59.71,158.55Z"/><path class="cls-3" d="M78.48,156.38c0,2.7-1.59,4-4.26,4s-4.26-1.31-4.26-4v-6.21h2.2v6.21c0,1.09.28,2.17,2.06,2.17,1.56,0,2.06-.69,2.06-2.17v-6.21h2.2Z"/><path class="cls-3" d="M80.37,150.17h2.18l4.17,6.7h0v-6.7h2v10H86.61l-4.16-6.69h0v6.69h-2Z"/><path class="cls-3" d="M90.73,150.17H95c2.59,0,4.53,1.62,4.53,4.94,0,2.89-1.48,5-4.53,5H90.73Zm2.2,8.14h2c1.27,0,2.49-.78,2.49-3,0-2-.7-3.3-2.88-3.3H92.93Z"/><path class="cls-3" d="M107.2,152h-3v-1.85h8.19V152h-3v8.14H107.2Z"/><path class="cls-3" d="M113.53,150.17H121V152h-5.27v2.14h4.84v1.7h-4.84v2.45h5.38v1.85h-7.58Z"/><path class="cls-3" d="M122.6,150.17h2.19v8.14h4.87v1.85H122.6Z"/><path class="cls-3" d="M130.89,150.17h7.47V152h-5.27v2.14h4.84v1.7h-4.84v2.45h5.38v1.85h-7.58Z"/><path class="cls-3" d="M140,150.17h3.1l2.33,6.87h0l2.21-6.87h3.09v10h-2.06v-7.08h0l-2.45,7.08h-1.69l-2.45-7h0v7H140Z"/><path class="cls-3" d="M155.37,150.17h2.25l3.73,10h-2.27l-.76-2.22h-3.73l-.79,2.22h-2.22Zm-.21,6.13h2.58l-1.25-3.67h0Z"/><path class="cls-3" d="M164.43,152h-3v-1.85h8.18V152h-3v8.14h-2.2Z"/><path class="cls-3" d="M170.77,150.17H173v10h-2.19Z"/><path class="cls-3" d="M174.89,150.17h2.2v4.14l3.9-4.14h2.74l-3.9,3.94,4.28,6h-2.75l-3-4.49-1.26,1.27v3.22h-2.2Z"/></svg>