<svg id="Ebene_1" data-name="Ebene 1" xmlns="http://www.w3.org/2000/svg" viewBox="0 0 19 21.45"><defs><style>.cls-1{fill:#1a82c3;}.cls-2{font-size:7.1px;fill:#fff;font-family:Montserrat-Bold, Montserrat;font-weight:700;letter-spacing:-0.01em;}.cls-3{letter-spacing:0em;}</style></defs><title>Zeichenfläche 1</title><path d="M5,11c0-.58-.4-.92-1.11-.92a2.33,2.33,0,0,0-.59.06V12a2,2,0,0,0,.48,0C4.55,12,5,11.64,5,11Zm0,0"/><path d="M9.4,10.09a3.67,3.67,0,0,0-.64.05v4.12a3.62,3.62,0,0,0,.49,0,2,2,0,0,0,2.13-2.2,1.8,1.8,0,0,0-2-2Zm0,0"/><path class="cls-1" d="M17.8,7.67h-.52V5.14a.39.39,0,0,0-.1-.27L13,.14h0L13,.07s0,0,0,0l-.09,0H2.56a.85.85,0,0,0-.84.84V7.67H1.2A1.21,1.21,0,0,0,0,8.88v6.25a1.2,1.2,0,0,0,1.2,1.2h.52v4.28a.84.84,0,0,0,.84.84H16.44a.84.84,0,0,0,.84-.84V16.33h.52a1.2,1.2,0,0,0,1.2-1.2V8.88a1.21,1.21,0,0,0-1.2-1.21ZM2.56.84H12.3V5.15a.42.42,0,0,0,.42.42h3.72v2.1H2.56ZM16.44,20.39H2.56V16.33H16.44Zm1.22-10.18"/><text class="cls-2" transform="translate(1.63 14.6)">P<tspan class="cls-3" x="5.13" y="0">DF</tspan></text></svg>